<?xml version="1.0" encoding="utf-8"?>
<!-- Generator: Adobe Illustrator 22.0.1, SVG Export Plug-In . SVG Version: 6.00 Build 0)  -->
<svg version="1.1" id="Layer_1" xmlns="http://www.w3.org/2000/svg" xmlns:xlink="http://www.w3.org/1999/xlink" x="0px" y="0px"
	 viewBox="0 0 260 260" style="enable-background:new 0 0 260 260;" xml:space="preserve">
<style type="text/css">
	.st0{fill:#FFA500;}
</style>
<g>
	<path class="st0" d="M187.8,168.6c-0.3,1.6-0.5,3.2-0.7,4.9c3-0.6,6.1-0.9,9.3-0.9c7.5,0,14.5,1.7,20.9,4.7
		c-0.1-0.6-0.2-1.2-0.3-1.7c-2.1-10.9-7.1-18.1-18.6-20.7c-2.5-0.6-4.9-1.2-7.1-1.9C190,157.4,188.7,162.7,187.8,168.6z"/>
	<path class="st0" d="M56.1,168.6c-1-5.9-2.2-11.2-3.5-15.7c-2.2,0.6-4.5,1.3-7.1,1.9c-11.5,2.7-16.5,9.9-18.6,20.7
		c-2.1,10.9,0,33.4,0,33.4s8.8,6.8,26.5,13.1C59.1,200.9,58.3,182,56.1,168.6z"/>
	<path class="st0" d="M171.1,145.2c-3.3-1.5-6.4-3.3-9.1-5.2c-1.6,9.2-4.9,18.8-11.3,26.2c-7.1,8.1-16.7,12.2-28.7,12.2
		c-12,0-21.6-4.1-28.7-12.2c-6.4-7.3-9.7-17-11.3-26.2c-2.7,1.9-5.9,3.7-9.1,5.2c-3.4,1.5-6.6,2.9-10,4.3c1.4,4.8,2.8,10.5,3.9,17
		c2.4,14.7,3.4,35.5-2.9,58.9c14.9,4.3,34.2,7.7,58.2,7.7c9.5,0,18.3-0.5,26.4-1.5c-0.7-3.2-1-6.5-1-9.9c0-19.7,11.7-36.8,28.6-44.6
		c0.3-3.8,0.8-7.4,1.3-10.7c1.1-6.5,2.5-12.2,3.9-17C177.7,148.1,174.5,146.7,171.1,145.2z"/>
	<path class="st0" d="M196.4,183.4c-21.1,0-38.3,17.1-38.3,38.3s17.1,38.3,38.3,38.3s38.3-17.1,38.3-38.3S217.5,183.4,196.4,183.4z
		 M220.6,227.1h-18.9V246H191v-18.9h-18.9v-10.8H191v-18.9h10.8v18.9h18.9V227.1z"/>
	<path class="st0" d="M168.4,61.8c0.6-3.3,1.2-6.5,1.7-9.7c1.1-7.8,1.6-15.6-1-23.2c-2.2-6.6-6.7-10.7-13.6-12
		c-0.7-0.1-1.4-0.3-2.1-0.4c-0.3-0.5-0.6-0.9-0.9-1.4c-5.6-11.5-15.9-16.7-28.6-14.7c-2.9,0.5-5.9,0.8-8.8,0.7
		C106.9,1,98.9,0.5,90.8,0.2c-1.1,0-2.2,0.1-3.3,0.2c-0.5,3.7,2,5.9,3.3,8.4c-0.2,0.4-0.3,0.6-0.4,0.7c-0.4,0.4-0.8,0.7-1.3,1
		C81.2,16.2,76.6,24,74.7,33.5c-1.7,8.5-1.2,17,0.4,25.4c0.2,0.9,0.2,1.9,0.4,2.8c-5.8,1.8-6.6,2.8-6.4,8.8
		c0.2,7.5,2.3,14.5,5.4,21.3c1.2,2.7,2.8,5.1,6.3,5c0.3,1.1,0.5,2.1,0.8,3c1.3,3.9,2.3,8,4,11.7c1.7,3.8,3.9,7.1,6.4,10
		c0,1.6-0.1,4.5-0.4,7c0.6,10.1,2.8,22.6,9.9,30.7c5,5.7,11.7,8.5,20.6,8.5c8.8,0,15.6-2.8,20.6-8.5c7.1-8.1,9.4-20.5,9.9-30.6
		c-0.3-2.7-0.4-5.9-0.4-7.4c4.8-5.8,7.8-12.8,9.7-20.4c0.3-1.4,0.7-2.7,1.1-4.2c3.5,0.5,5.2-1.6,6.4-4.1c3.3-7.1,5.5-14.5,5.7-22.3
		C174.9,65.2,174.5,62.9,168.4,61.8z"/>
</g>
</svg>
